<svg width="9" height="15" viewBox="0 0 9 15" fill="none" xmlns="http://www.w3.org/2000/svg">
<path d="M8.08606 9.75234C8.08606 10.5668 7.82112 11.2537 7.29123 11.813C6.77117 12.3625 6.09409 12.7108 5.26002 12.858V14.4035H3.92059V12.9022C3.2239 12.8237 2.59098 12.598 2.02185 12.2251C1.45272 11.8424 1.00624 11.3322 0.682425 10.6944L1.9041 9.63459C2.16904 10.1743 2.5272 10.5913 2.97858 10.8857C3.42996 11.1703 3.91078 11.3125 4.42104 11.3125C4.97055 11.3125 5.40721 11.1752 5.73103 10.9004C6.05484 10.6159 6.21675 10.2626 6.21675 9.84065C6.21675 9.30096 5.8635 8.83976 5.15699 8.45707L4.11194 7.95663C3.52318 7.67206 3.10124 7.44146 2.84611 7.26484C1.78635 6.57795 1.25646 5.71444 1.25646 4.6743C1.25646 3.8991 1.50669 3.24166 2.00713 2.70196C2.5272 2.15245 3.19937 1.82864 4.02363 1.73051V0.346927H5.36305V1.74523C6.36394 1.92186 7.19311 2.4223 7.85055 3.24656L6.79079 4.37992C6.16278 3.64397 5.43665 3.276 4.61239 3.276C4.161 3.276 3.78812 3.39866 3.49374 3.64397C3.19937 3.87948 3.05218 4.19839 3.05218 4.60071C3.05218 5.09134 3.38581 5.53781 4.05306 5.94013C4.20025 6.02844 4.59276 6.23451 5.23058 6.55833C5.91747 6.89196 6.36394 7.12255 6.57001 7.25012C7.58071 7.87813 8.08606 8.7122 8.08606 9.75234Z" fill="white"/>
</svg>
