<svg width="6" height="4" viewBox="0 0 6 4" fill="none" xmlns="http://www.w3.org/2000/svg">
<path d="M3.3348 3.48013L5.53535 1.17059C5.57208 1.13205 5.59258 1.08086 5.59258 1.02762C5.59258 0.974377 5.57208 0.92318 5.53535 0.884644L5.53286 0.882157C5.51505 0.863411 5.49361 0.848484 5.46986 0.838284C5.4461 0.828083 5.42051 0.822823 5.39465 0.822823C5.3688 0.822823 5.34321 0.828083 5.31945 0.838284C5.29569 0.848484 5.27425 0.863411 5.25644 0.882157V0.882157C4.12894 2.06559 2.24039 2.06582 1.11312 0.882157V0.882157C1.09531 0.863411 1.07387 0.848484 1.05012 0.838283C1.02636 0.828083 1.00077 0.822823 0.974912 0.822823C0.949056 0.822823 0.923469 0.828083 0.89971 0.838283C0.87595 0.848484 0.854514 0.863411 0.836705 0.882157L0.834218 0.884643C0.797482 0.923179 0.776989 0.974376 0.776989 1.02762C0.776989 1.08086 0.797482 1.13205 0.834218 1.17059L3.03476 3.48013C3.05412 3.50044 3.07739 3.51661 3.10318 3.52766C3.12897 3.53871 3.15673 3.5444 3.18478 3.5444C3.21284 3.5444 3.2406 3.53871 3.26639 3.52766C3.29217 3.51661 3.31545 3.50044 3.3348 3.48013Z" fill="white"/>
</svg>
