<svg width="20" height="16" viewBox="0 0 22 16" fill="none" xmlns="http://www.w3.org/2000/svg">
<path d="M11.0156 5.96045C10.0671 5.96045 9.26562 6.76195 9.26562 7.71045C9.26562 8.65895 10.0671 9.46045 11.0156 9.46045C11.9641 9.46045 12.7656 8.65895 12.7656 7.71045C12.7656 6.76195 11.9641 5.96045 11.0156 5.96045Z" fill="#805AD5"/>
<path d="M11.016 1.58545C4.33713 1.58545 2.32988 7.37532 2.3115 7.43395L2.21875 7.71045L2.31063 7.98695C2.32988 8.04557 4.33713 13.8354 11.016 13.8354C17.6949 13.8354 19.7021 8.04557 19.7205 7.98695L19.8133 7.71045L19.7214 7.43395C19.7021 7.37532 17.6949 1.58545 11.016 1.58545ZM11.016 11.2104C9.08575 11.2104 7.516 9.6407 7.516 7.71045C7.516 5.7802 9.08575 4.21045 11.016 4.21045C12.9462 4.21045 14.516 5.7802 14.516 7.71045C14.516 9.6407 12.9462 11.2104 11.016 11.2104Z" fill="#805AD5"/>
<path d="M0.820312 1.14795L21.2148 14.271" stroke="#805AD5" stroke-width="2"/>
</svg>
