<svg width="27" height="27" viewBox="0 0 27 27" fill="none" xmlns="http://www.w3.org/2000/svg">
<g clip-path="url(#clip0_1_878)">
<path d="M21.0504 6.29297H13.7834L12.1424 9.57486H3V22.7024H22.6914V6.29297H21.0504ZM21.0504 9.57486H14.6429L15.5024 7.93391H21.0504V9.57486Z" fill="#AA84FF"/>
<path d="M15.1903 11.7627V12.9348H12.0647C11.6506 12.936 11.2538 13.1011 10.9609 13.3939C10.6681 13.6867 10.5031 14.0835 10.5018 14.4976V17.6232H9.32974C8.81164 17.6232 8.31476 17.829 7.9484 18.1954C7.58205 18.5617 7.37624 19.0586 7.37624 19.5767C7.37624 20.0948 7.58205 20.5917 7.9484 20.958C8.31476 21.3244 8.81164 21.5302 9.32974 21.5302H10.5018V24.6558C10.5031 25.0699 10.6681 25.4667 10.9609 25.7595C11.2538 26.0523 11.6506 26.2174 12.0647 26.2186H15.034V25.0465C15.034 24.487 15.2563 23.9503 15.6519 23.5547C16.0476 23.159 16.5842 22.9367 17.1438 22.9367C17.7033 22.9367 18.24 23.159 18.6356 23.5547C19.0313 23.9503 19.2536 24.487 19.2536 25.0465V26.2186H22.2229C22.637 26.2174 23.0338 26.0523 23.3266 25.7595C23.6194 25.4667 23.7845 25.0699 23.7857 24.6558V21.6865H22.6136C22.054 21.6865 21.5174 21.4642 21.1217 21.0686C20.7261 20.6729 20.5038 20.1363 20.5038 19.5767C20.5038 19.0172 20.7261 18.4805 21.1217 18.0849C21.5174 17.6892 22.054 17.4669 22.6136 17.4669H23.7857V14.4976C23.7845 14.0835 23.6194 13.6867 23.3266 13.3939C23.0338 13.1011 22.637 12.936 22.2229 12.9348H19.0973V11.7627C19.0973 11.2446 18.8915 10.7477 18.5251 10.3813C18.1588 10.015 17.6619 9.80917 17.1438 9.80917C16.6257 9.80917 16.1288 10.015 15.7624 10.3813C15.3961 10.7477 15.1903 11.2446 15.1903 11.7627Z" fill="#7F56DC"/>
</g>
<defs>
<clipPath id="clip0_1_878">
<rect width="27" height="27" fill="white"/>
</clipPath>
</defs>
</svg>
